<svg width="18" height="18" viewBox="0 0 18 18" fill="none" xmlns="http://www.w3.org/2000/svg">
<path d="M16.1645 17.1016C15.6838 17.665 15.0093 18.0312 14.27 17.9979C12.3635 17.9121 8.37531 17.2321 4.57097 13.4218C0.767094 9.61185 0.0878571 5.61786 0.00209481 3.70808C-0.0311764 2.96719 0.33471 2.29129 0.897819 1.8097L2.70841 0.261195C3.18412 -0.145655 3.90351 -0.0681833 4.282 0.430658L6.71667 3.63955C6.9844 3.99241 6.98572 4.4804 6.71989 4.83471L4.22109 8.16524L9.81916 13.7722L13.3049 11.3727C13.6553 11.1314 14.1205 11.1414 14.4603 11.3974L17.5934 13.7577C18.0632 14.1117 18.1375 14.7892 17.7555 15.2369L16.1645 17.1016Z" fill="#4E4E4E"/>
</svg>
